<svg class="icon" viewBox="0 0 1024 1024" xmlns="http://www.w3.org/2000/svg" width="32" height="32"><path d="M896 518.016V857.6a38.4 38.4 0 0 1-38.4 38.4H166.4a38.4 38.4 0 0 1-38.4-38.4V166.4a38.4 38.4 0 0 1 38.4-38.4h344.32a102.4 102.4 0 0 0 72.448-29.952l54.272-54.4A25.6 25.6 0 0 0 619.392 0H102.4A102.4 102.4 0 0 0 0 102.4v819.2A102.4 102.4 0 0 0 102.4 1024h819.2A102.4 102.4 0 0 0 1024 921.6v-512a25.6 25.6 0 0 0-43.648-18.048l-54.272 54.272A102.4 102.4 0 0 0 896 518.016z" fill="#3E3A39"/><path d="M373.773 532.57L808.218 98.125l126.72 126.72-434.445 434.432zm624.14-497.408a89.6 89.6 0 0 1 0 126.72l-45.26 45.248L825.946 80.41l45.26-45.248a89.6 89.6 0 0 1 126.708 0zM331.649 716.8l150.784-39.68-126.72-126.72-39.68 151.04a12.8 12.8 0 0 0 15.616 15.36z" fill="#3E3A39"/></svg>