<?xml version="1.0" standalone="no"?><!DOCTYPE svg PUBLIC "-//W3C//DTD SVG 1.1//EN" "http://www.w3.org/Graphics/SVG/1.1/DTD/svg11.dtd"><svg t="1539940121226" class="icon" style="" viewBox="0 0 1024 1024" version="1.1" xmlns="http://www.w3.org/2000/svg" p-id="52394" xmlns:xlink="http://www.w3.org/1999/xlink" width="32" height="32"><defs><style type="text/css"></style></defs><path d="M896 518.016V857.6a38.4 38.4 0 0 1-38.4 38.4H166.4a38.4 38.4 0 0 1-38.4-38.4V166.4a38.4 38.4 0 0 1 38.4-38.4h344.32a102.4 102.4 0 0 0 72.448-29.952l54.272-54.4A25.6 25.6 0 0 0 619.392 0H102.4a102.4 102.4 0 0 0-102.4 102.4v819.2a102.4 102.4 0 0 0 102.4 102.4h819.2a102.4 102.4 0 0 0 102.4-102.4V409.6a25.6 25.6 0 0 0-43.648-18.048l-54.272 54.272A102.4 102.4 0 0 0 896 518.016z" fill="#3E3A39" p-id="52395"></path><path d="M373.7728 532.5696L808.2176 98.1248l126.72 126.72-434.4448 434.432zM997.9136 35.1616a89.6 89.6 0 0 1 0 126.72l-45.2608 45.248-126.7072-126.72 45.2608-45.248a89.6 89.6 0 0 1 126.7072 0zM331.648 716.8l150.784-39.68-126.72-126.72-39.68 151.04a12.8 12.8 0 0 0 15.616 15.36z" fill="#3E3A39" p-id="52396"></path></svg>