<?xml version="1.0" standalone="no"?><!DOCTYPE svg PUBLIC "-//W3C//DTD SVG 1.1//EN" "http://www.w3.org/Graphics/SVG/1.1/DTD/svg11.dtd"><svg t="1539930248291" class="icon" style="" viewBox="0 0 1098 1024" version="1.1" xmlns="http://www.w3.org/2000/svg" p-id="39882" xmlns:xlink="http://www.w3.org/1999/xlink" width="34.3125" height="32"><defs><style type="text/css"></style></defs><path d="M1073.701 586.666q0 17.701-17.701 37.705l-192 226.304q-24.576 29.147-68.864 49.445t-81.993 20.297h-621.714q-19.419 0-34.56-7.424t-15.141-24.576q0-17.701 17.701-37.705l192-226.304q24.576-29.147 68.864-49.445t81.993-20.297h621.714q19.419 0 34.56 7.424t15.141 24.576zM877.714 390.095v91.429h-475.429q-53.723 0-112.567 27.136t-93.696 68.279l-195.438 229.705q0-2.304-0.293-7.131t-0.293-7.131v-548.571q0-52.553 37.705-90.295t90.295-37.705h182.857q52.553 0 90.295 37.705t37.705 90.295v18.286h310.857q52.553 0 90.295 37.705t37.705 90.295z" p-id="39883"></path></svg>