<svg class="icon" viewBox="0 0 1098 1024" xmlns="http://www.w3.org/2000/svg" width="34.313" height="32"><path d="M1073.701 586.666q0 17.701-17.701 37.705L864 850.675q-24.576 29.147-68.864 49.445t-81.993 20.297H91.429q-19.419 0-34.56-7.424t-15.141-24.576q0-17.701 17.701-37.705l192-226.304q24.576-29.147 68.864-49.445t81.993-20.297H1024q19.419 0 34.56 7.424t15.141 24.576zM877.714 390.095v91.429H402.285q-53.723 0-112.567 27.136t-93.696 68.279L.584 806.644q0-2.304-.293-7.131t-.293-7.131V243.811q0-52.553 37.705-90.295t90.295-37.705h182.857q52.553 0 90.295 37.705t37.705 90.295v18.286h310.857q52.553 0 90.295 37.705t37.705 90.295z"/></svg>