<?xml version="1.0" standalone="no"?><!DOCTYPE svg PUBLIC "-//W3C//DTD SVG 1.1//EN" "http://www.w3.org/Graphics/SVG/1.1/DTD/svg11.dtd"><svg t="1539930316122" class="icon" style="" viewBox="0 0 1024 1024" version="1.1" xmlns="http://www.w3.org/2000/svg" p-id="41112" xmlns:xlink="http://www.w3.org/1999/xlink" width="32" height="32"><defs><style type="text/css"></style></defs><path d="M512.006807 269.04702L146.80149 570.120109c0 0.424908-0.106783 1.050035-0.32035 1.902077-0.209117 0.845367-0.32035 1.459371-0.320349 1.895402v304.868344c0 11.007571 4.024393 20.546873 12.070954 28.580086 8.044337 8.037663 17.57029 12.082077 28.580086 12.082077h243.888446V675.546302h162.615285v243.910692h243.886222c11.007571 0 20.546873-4.035516 28.580086-12.090976 8.046561-8.024315 12.084302-17.57029 12.084302-28.580086V573.917588c0-1.690734-0.231364-2.967684-0.640699-3.797479L512.006807 269.04702z" fill="" p-id="41113"></path><path d="M1016.942429 501.520783L877.852824 385.923489V126.780613c0-5.924245-1.904301-10.796229-5.72625-14.60928-3.790805-3.808602-8.662789-5.712903-14.600382-5.712903h-121.946448c-5.930919 0-10.800679 1.904301-14.615954 5.712903-3.806377 3.813051-5.708453 8.687261-5.708454 14.60928v123.852974l-154.97361-129.574775c-13.534774-11.009796-29.627897-16.513581-48.261571-16.513581-18.631449 0-34.722347 5.503786-48.270469 16.513581L7.062287 501.520783c-4.23351 3.381469-6.553821 7.933104-6.985403 13.650456-0.429358 5.712903 1.050035 10.702794 4.442627 14.93408l39.378541 47.002418c3.392592 3.808602 7.832995 6.137811 13.339005 6.989852 5.083327 0.427133 10.166653-1.058934 15.24998-4.444852L512.006807 213.159347l439.524221 366.491166c3.394817 2.954336 7.832995 4.429279 13.339005 4.429279h1.90875c5.497112-0.836469 9.928616-3.18125 13.339005-6.980954l39.38299-46.995744c3.385918-4.240184 4.86976-9.221177 4.429279-14.940753-0.433807-5.70178-2.763016-10.253415-6.987628-13.641558z" fill="" p-id="41114"></path></svg>