<svg class="icon" viewBox="0 0 1024 1024" xmlns="http://www.w3.org/2000/svg" width="32" height="32"><path d="M512.007 269.047L146.8 570.12c0 .425-.106 1.05-.32 1.902-.209.846-.32 1.46-.32 1.896v304.868c0 11.008 4.024 20.547 12.07 28.58 8.045 8.038 17.571 12.082 28.58 12.082h243.89V675.546h162.615v243.911h243.886c11.007 0 20.547-4.036 28.58-12.091 8.046-8.024 12.084-17.57 12.084-28.58V573.918c0-1.691-.231-2.968-.64-3.798l-365.22-301.073z"/><path d="M1016.942 501.52l-139.09-115.597V126.781c0-5.925-1.903-10.797-5.725-14.61-3.791-3.808-8.663-5.713-14.6-5.713H735.58c-5.931 0-10.8 1.905-14.616 5.713-3.807 3.813-5.709 8.688-5.709 14.61v123.853L560.282 121.059c-13.535-11.01-29.628-16.514-48.262-16.514-18.631 0-34.722 5.504-48.27 16.514L7.062 501.52C2.83 504.902.508 509.454.077 515.17c-.43 5.713 1.05 10.703 4.443 14.934l39.378 47.003c3.393 3.808 7.833 6.138 13.34 6.99 5.082.427 10.166-1.06 15.249-4.445l439.52-366.494L951.53 579.651c3.395 2.954 7.833 4.429 13.339 4.429h1.909c5.497-.837 9.928-3.181 13.339-6.981l39.383-46.996c3.386-4.24 4.87-9.221 4.43-14.94-.435-5.702-2.764-10.254-6.989-13.642z"/></svg>