<svg class="icon" viewBox="0 0 1024 1024" xmlns="http://www.w3.org/2000/svg" width="32" height="32"><path d="M695.19 474.425H328.81V337.033c0-50.568 17.89-93.742 53.669-129.523 35.78-35.78 78.953-53.67 129.522-53.669s93.743 17.891 129.522 53.67c35.78 35.778 53.67 78.952 53.67 129.522v137.392h-.002zM99.82 543.122V955.3c0 19.082 6.68 35.302 20.037 48.66s29.577 20.036 48.66 20.036H855.48c19.083 0 35.303-6.678 48.66-20.036 13.358-13.358 20.037-29.578 20.037-48.66v-412.18c0-19.082-6.679-35.301-20.037-48.66-13.357-13.357-29.577-20.036-48.66-20.036h-22.899V337.033c0-87.78-31.486-163.154-94.458-226.126C675.152 47.936 599.777 16.45 511.998 16.45s-163.153 31.485-226.125 94.458c-62.972 62.973-94.458 138.348-94.458 226.126v137.392h-22.9c-19.082 0-35.302 6.68-48.66 20.037-13.357 13.358-20.036 29.577-20.036 48.66h.001z"/></svg>