<?xml version="1.0" standalone="no"?><!DOCTYPE svg PUBLIC "-//W3C//DTD SVG 1.1//EN" "http://www.w3.org/Graphics/SVG/1.1/DTD/svg11.dtd"><svg t="1540455553465" class="icon" style="" viewBox="0 0 1024 1024" version="1.1" xmlns="http://www.w3.org/2000/svg" p-id="53075" xmlns:xlink="http://www.w3.org/1999/xlink" width="32" height="32"><defs><style type="text/css"></style></defs><path d="M695.190769 474.425333 328.809939 474.425333l0-137.392664c0-50.567986 17.889608-93.74198 53.669022-129.52218 35.779413-35.7802 78.953408-53.669808 129.521983-53.669022s93.742767 17.890592 129.52218 53.669022c35.779413 35.77843 53.669022 78.952424 53.669022 129.52218l0 137.392664L695.190769 474.425333zM99.820396 543.121665l0 412.179368c0 19.082314 6.678761 35.302134 20.036479 48.659853s29.577538 20.036479 48.659853 20.036479l686.964696 0c19.082314 0 35.302134-6.678761 48.659853-20.036479 13.357522-13.357718 20.036479-29.577538 20.036479-48.659853L924.177755 543.121665c0-19.082314-6.678761-35.302134-20.036479-48.659853-13.357718-13.357718-29.577735-20.036479-48.659853-20.036479l-22.899171 0 0-137.392664c0-87.77904-31.486065-163.154132-94.458194-226.125475C675.151733 47.935851 599.77664 16.449787 511.998387 16.449S348.845042 47.934082 285.872912 110.907194c-62.972129 62.973112-94.458194 138.348205-94.458194 226.125475l0 137.392664L168.515548 474.425333c-19.082314 0-35.302134 6.678761-48.659853 20.036479-13.357522 13.357718-20.036479 29.577538-20.036479 48.659853L99.820396 543.121665z" p-id="53076"></path></svg>