<?xml version="1.0" standalone="no"?><!DOCTYPE svg PUBLIC "-//W3C//DTD SVG 1.1//EN" "http://www.w3.org/Graphics/SVG/1.1/DTD/svg11.dtd"><svg t="1539759097487" class="icon" style="" viewBox="0 0 1024 1024" version="1.1" xmlns="http://www.w3.org/2000/svg" p-id="30668" xmlns:xlink="http://www.w3.org/1999/xlink" width="32" height="32"><defs><style type="text/css"></style></defs><path d="M527.52 932.729c-105.02 0.067-210.621-40.267-290.742-120.431l0 0c-80.179-80.13-120.515-185.729-120.444-290.749l0 0c-0.071-105.019 40.265-210.621 120.451-290.744l0 0c24.404-24.396 63.971-24.396 88.372 0.011l0 0c24.405 24.399 24.393 63.968-0.008 88.369l0 0c-56.006 56.045-83.76 128.906-83.831 202.363l0 0c0.072 73.452 27.825 146.327 83.839 202.382l0 0c56.021 55.989 128.901 83.739 202.361 83.81l0 0c73.461-0.07 146.343-27.813 202.388-83.81l0 0c56.002-56.056 83.757-128.93 83.826-202.382l0 0c-0.069-73.447-27.824-146.317-83.826-202.376l0 0 0 0.012c-24.403-24.411-24.403-63.975 0-88.38l0 0c24.403-24.396 63.966-24.396 88.379 0l0 0c80.168 80.128 120.507 185.724 120.422 290.744l0 0c0.085 105.021-40.262 210.619-120.435 290.749l0 0c-80.063 80.107-185.545 120.434-290.484 120.432l0 0C527.704 932.729 527.602 932.729 527.52 932.729L527.52 932.729 527.52 932.729zM465.034 521.56 465.034 144.328c0-34.503 27.976-62.485 62.496-62.485l0 0c34.517 0 62.488 27.982 62.488 62.485l0 0 0 377.232c0 34.504-27.973 62.483-62.488 62.483l0 0C493.01 584.043 465.034 556.063 465.034 521.56L465.034 521.56 465.034 521.56z" p-id="30669"></path></svg>