<svg class="icon" viewBox="0 0 1024 1024" xmlns="http://www.w3.org/2000/svg" width="32" height="32"><path d="M527.52 932.729c-105.02.067-210.621-40.267-290.742-120.431-80.179-80.13-120.515-185.729-120.444-290.749-.071-105.019 40.265-210.621 120.451-290.744 24.404-24.396 63.971-24.396 88.372.011 24.405 24.399 24.393 63.968-.008 88.369-56.006 56.045-83.76 128.906-83.831 202.363.072 73.452 27.825 146.327 83.839 202.382 56.021 55.989 128.901 83.739 202.361 83.81 73.461-.07 146.343-27.813 202.388-83.81 56.002-56.056 83.757-128.93 83.826-202.382-.069-73.447-27.824-146.317-83.826-202.376v.012c-24.403-24.411-24.403-63.975 0-88.38 24.403-24.396 63.966-24.396 88.379 0 80.168 80.128 120.507 185.724 120.422 290.744.085 105.021-40.262 210.619-120.435 290.749-80.063 80.107-185.545 120.434-290.484 120.432h-.268zM465.034 521.56V144.328c0-34.503 27.976-62.485 62.496-62.485 34.517 0 62.488 27.982 62.488 62.485V521.56c0 34.504-27.973 62.483-62.488 62.483-34.52 0-62.496-27.98-62.496-62.483z"/></svg>