<svg class="icon" viewBox="0 0 1024 1024" xmlns="http://www.w3.org/2000/svg" width="32" height="32"><path d="M1023.934 405.754v453.685q0 37.712-26.855 64.567t-64.567 26.856H91.422q-37.711 0-64.567-26.856T0 859.44V405.754q25.141 27.998 57.71 49.711 206.844 140.562 283.982 197.13 32.57 23.999 52.854 37.426t53.997 27.427 62.853 14h1.143q29.14 0 62.853-14t53.996-27.427 52.854-37.426q97.137-70.281 284.553-197.13 32.57-22.284 57.14-49.711zm0-167.99q0 45.14-27.998 86.28t-69.71 70.282Q711.383 543.459 658.815 580.028q-5.714 4-24.284 17.428t-30.855 21.713-29.713 18.57-32.855 15.428-28.57 5.142h-1.142q-13.142 0-28.57-5.142t-32.855-15.428-29.712-18.57-30.855-21.713-24.285-17.428Q313.123 543.46 215.415 475.75T98.279 394.326q-35.426-23.998-66.852-65.996T0 250.335q0-44.568 23.713-74.28t67.71-29.713h841.089q37.14 0 64.281 26.855t27.141 64.568z"/></svg>