<?xml version="1.0" standalone="no"?><!DOCTYPE svg PUBLIC "-//W3C//DTD SVG 1.1//EN" "http://www.w3.org/Graphics/SVG/1.1/DTD/svg11.dtd"><svg t="1539669314019" class="icon" style="" viewBox="0 0 1024 1024" version="1.1" xmlns="http://www.w3.org/2000/svg" p-id="1779" xmlns:xlink="http://www.w3.org/1999/xlink" width="32" height="32"><defs><style type="text/css"></style></defs><path d="M1023.934464 405.753856l0 453.685248q0 37.711872-26.855424 64.567296t-64.567296 26.855424l-841.089024 0q-37.711872 0-64.567296-26.855424t-26.855424-64.567296l0-453.685248q25.141248 27.998208 57.710592 49.711104 206.843904 140.562432 283.981824 197.13024 32.569344 23.998464 52.85376 37.426176t53.996544 27.426816 62.85312 13.999104l1.142784 0q29.140992 0 62.85312-13.999104t53.996544-27.426816 52.85376-37.426176q97.13664-70.281216 284.553216-197.13024 32.569344-22.284288 57.1392-49.711104zm0-167.989248q0 45.139968-27.998208 86.280192t-69.709824 70.281216q-214.843392 149.133312-267.411456 185.7024-5.71392 3.999744-24.28416 17.427456t-30.855168 21.712896-29.712384 18.57024-32.85504 15.427584-28.5696 5.142528l-1.142784 0q-13.142016 0-28.5696-5.142528t-32.85504-15.427584-29.712384-18.57024-30.855168-21.712896-24.28416-17.427456q-51.996672-36.569088-149.704704-104.27904t-117.13536-81.42336q-35.426304-23.998464-66.852864-65.995776t-31.42656-77.995008q0-44.568576 23.712768-74.28096t67.709952-29.712384l841.089024 0q37.14048 0 64.2816 26.855424t27.14112 64.567296z" p-id="1780"></path></svg>