<?xml version="1.0" standalone="no"?><!DOCTYPE svg PUBLIC "-//W3C//DTD SVG 1.1//EN" "http://www.w3.org/Graphics/SVG/1.1/DTD/svg11.dtd"><svg t="1541126378235" class="icon" style="" viewBox="0 0 1024 1024" version="1.1" xmlns="http://www.w3.org/2000/svg" p-id="1427" xmlns:xlink="http://www.w3.org/1999/xlink" width="32" height="32"><defs><style type="text/css"></style></defs><path d="M687.951873 530.088984c-39.464827 0-72.353888 13.154601-98.665137 39.464827-26.311249 23.022343-39.463804 59.20031-39.463804 101.955066 0 39.466873 13.153578 72.354911 39.463804 98.665137 29.600155 29.601178 59.20031 39.46585 101.955066 39.46585 39.46585 0 72.355935-13.153578 101.955067-39.46585 26.310226-26.310226 39.46585-59.198264 39.46585-98.665137-3.288906-42.754756-16.444531-72.352865-42.754757-101.955066-29.601178-26.310226-59.20031-39.464827-101.956089-39.464827z m62.489216 200.621226c-19.732413 16.441461-36.177967 23.02132-59.199287 23.02132-26.310226 0-42.754756-6.579859-59.201333-26.312272-16.442484-16.442484-26.310226-36.176944-26.310226-55.910381 0-26.310226 6.579859-42.754756 26.310226-59.20031 16.445554-16.443507 36.178991-23.02132 59.201333-23.02132s42.753733 9.868765 59.199287 26.310226c16.444531 13.155624 26.311249 32.890085 26.311249 55.911404 0 26.311249-9.866718 42.75578-26.311249 59.201333z m-78.932724-539.37344c-6.576789 0-19.732413 3.288906-26.310225 19.733436l-315.729871 578.837245c-3.288906 6.578836-6.577812 13.154601-6.577813 19.732413 0 6.579859 3.288906 16.444531 6.577813 16.444531h3.288906c6.577812 6.577812 13.155624 6.577812 19.733436 6.577812 6.575766 0 19.732413-3.288906 26.310226-19.733437l315.728848-578.837244c3.288906-6.577812 6.579859-13.154601 6.579859-16.443507s-3.290953-13.155624-6.579859-19.733437c-6.577812-3.288906-13.154601-6.577812-23.02132-6.577812z m-200.61918 167.732165c0-42.75578-13.155624-72.354911-39.466873-101.955066-29.600155-29.600155-59.199287-39.46585-101.954043-39.46585-39.466873 0-72.354911 13.155624-98.667184 39.46585-29.599132 29.600155-39.464827 59.199287-39.464827 101.955066 0 39.464827 13.154601 72.353888 39.464827 101.954043 29.602202 29.600155 59.20031 39.46585 101.95609 39.465851 36.177967-3.288906 65.776076-16.444531 98.665137-42.754757 29.599132-29.600155 39.466873-59.20031 39.466873-98.665137z m-75.643817 52.621475c-16.444531 16.443507-36.178991 26.310226-59.200311 26.310226-26.311249 0-42.754756-6.577812-59.199286-26.310226-16.443507-16.444531-26.312272-36.177967-26.312273-59.20031 0-23.022343 9.868765-46.043662 26.312273-59.20031 16.443507-16.442484 36.176944-23.02132 59.199286-23.02132 23.020296 0 42.754756 9.867742 59.200311 26.311249 16.444531 13.154601 26.310226 32.888038 26.310225 55.910381 0 26.310226-9.865695 42.754756-26.310225 59.20031z" fill="" p-id="1428"></path></svg>