<svg class="icon" viewBox="0 0 1024 1024" xmlns="http://www.w3.org/2000/svg" width="32" height="32"><path d="M687.952 530.089c-39.465 0-72.354 13.155-98.665 39.465-26.312 23.022-39.464 59.2-39.464 101.955 0 39.467 13.154 72.355 39.464 98.665 29.6 29.601 59.2 39.466 101.955 39.466 39.466 0 72.356-13.154 101.955-39.466 26.31-26.31 39.466-59.198 39.466-98.665-3.29-42.755-16.445-72.353-42.755-101.955-29.601-26.31-59.2-39.465-101.956-39.465zm62.49 200.621c-19.733 16.442-36.179 23.022-59.2 23.022-26.31 0-42.755-6.58-59.202-26.313-16.442-16.442-26.31-36.177-26.31-55.91 0-26.31 6.58-42.755 26.31-59.2 16.446-16.444 36.18-23.022 59.202-23.022s42.754 9.869 59.2 26.31c16.444 13.156 26.31 32.89 26.31 55.912 0 26.311-9.866 42.756-26.31 59.201zm-78.934-539.373c-6.576 0-19.732 3.289-26.31 19.733l-315.73 578.837c-3.289 6.58-6.578 13.155-6.578 19.733 0 6.58 3.29 16.444 6.578 16.444h3.29c6.577 6.578 13.155 6.578 19.733 6.578 6.575 0 19.732-3.289 26.31-19.733L694.53 234.092c3.289-6.578 6.58-13.155 6.58-16.444s-3.291-13.156-6.58-19.733c-6.578-3.29-13.155-6.578-23.022-6.578zM470.89 359.069c0-42.756-13.155-72.355-39.467-101.955-29.6-29.6-59.199-39.466-101.954-39.466-39.467 0-72.355 13.156-98.667 39.466-29.599 29.6-39.465 59.2-39.465 101.955 0 39.465 13.155 72.354 39.465 101.954 29.602 29.6 59.2 39.466 101.956 39.466 36.178-3.29 65.776-16.445 98.665-42.755 29.6-29.6 39.467-59.2 39.467-98.665zm-75.644 52.621c-16.444 16.444-36.179 26.31-59.2 26.31-26.311 0-42.755-6.577-59.2-26.31-16.443-16.444-26.312-36.178-26.312-59.2 0-23.022 9.87-46.044 26.313-59.2 16.443-16.443 36.177-23.022 59.2-23.022 23.02 0 42.754 9.868 59.2 26.312 16.444 13.154 26.31 32.888 26.31 55.91 0 26.31-9.866 42.755-26.31 59.2z"/></svg>