<svg class="icon" viewBox="0 0 1024 1024" xmlns="http://www.w3.org/2000/svg" width="32" height="32"><path d="M925.828 82.814H99.542c-54.226 0-98.186 51.568-98.186 115.161v631.874c0 63.594 43.959 115.175 98.186 115.175h826.287c54.212 0 98.172-51.581 98.172-115.175V197.976C1024 134.382 980.04 82.814 925.828 82.814zm38.608 710.229c0 56.183-38.841 101.752-86.739 101.752H147.673c-47.913 0-86.753-45.569-86.753-101.752V234.781c0-56.184 38.84-101.738 86.753-101.738h730.023c47.898 0 86.739 45.555 86.739 101.738v558.262z"/><path d="M147.166 458.537h141.555v68.195H147.166zm237.132 0H878.19v68.195H384.298zm0 132.08H878.19v68.193H384.298zm0 137.406H878.19v68.166H384.298zM147.166 590.617h141.555v68.193H147.166zm0 140.959h141.555v68.194H147.166zM32.03 124.5h946.459v224.19H32.03z"/></svg>