<?xml version="1.0" standalone="no"?><!DOCTYPE svg PUBLIC "-//W3C//DTD SVG 1.1//EN" "http://www.w3.org/Graphics/SVG/1.1/DTD/svg11.dtd"><svg t="1539852228078" class="icon" style="" viewBox="0 0 1024 1024" version="1.1" xmlns="http://www.w3.org/2000/svg" p-id="37514" xmlns:xlink="http://www.w3.org/1999/xlink" width="32" height="32"><defs><style type="text/css"></style></defs><path d="M 925.828 82.814 H 99.542 c -54.226 0 -98.186 51.568 -98.186 115.161 v 631.874 c 0 63.594 43.959 115.175 98.186 115.175 h 826.287 c 54.212 0 98.172 -51.581 98.172 -115.175 V 197.976 C 1024 134.382 980.04 82.814 925.828 82.814 Z m 38.608 710.229 c 0 56.183 -38.841 101.752 -86.739 101.752 H 147.673 c -47.913 0 -86.753 -45.569 -86.753 -101.752 V 234.781 c 0 -56.184 38.84 -101.738 86.753 -101.738 h 730.023 c 47.898 0 86.739 45.555 86.739 101.738 v 558.262 Z" p-id="37515"></path><path d="M 147.166 458.537 h 141.555 v 68.195 H 147.166 Z M 384.298 458.537 H 878.19 v 68.195 H 384.298 Z M 384.298 590.617 H 878.19 v 68.193 H 384.298 Z M 384.298 728.023 H 878.19 v 68.166 H 384.298 Z M 147.166 590.617 h 141.555 v 68.193 H 147.166 Z M 147.166 731.576 h 141.555 v 68.194 H 147.166 Z M 32.03 124.5 h 946.459 v 224.19 H 32.03 Z" p-id="37516"></path></svg>